<?xml version="1.0" encoding="utf-8"?>
<!-- Generator: Adobe Illustrator 14.0.0, SVG Export Plug-In . SVG Version: 6.00 Build 43363)  -->
<!DOCTYPE svg PUBLIC "-//W3C//DTD SVG 1.1//EN" "http://www.w3.org/Graphics/SVG/1.1/DTD/svg11.dtd">
<svg version="1.1" id="Layer_1" xmlns="http://www.w3.org/2000/svg" xmlns:xlink="http://www.w3.org/1999/xlink" x="0px" y="0px"
	 width="283.46px" height="123.012px" viewBox="0 0 283.46 123.012" enable-background="new 0 0 283.46 123.012"
	 xml:space="preserve">
<g>
	<g>
		<path fill="#FFFFFF" d="M179.454,55.549c-2.594-0.531-4.973,3.471-4.973,3.471s-0.377-0.264-0.457-0.232
			c-0.081,0.032-1.885,2.287-2.158,2.657c-2.77,3.747-5.542,3.303-5.56,3.319c-5.138,0.064-6.813-4.511-6.941-4.688
			c-1.152-2.496-1.326-2.317-1.628-2.496c-0.402-0.239-1.932-0.081-4.14,1.804c-2.24,1.911-4.007,7.017-4.039,7.082
			c-2.715,8.893-3.985,8.673-4.984,8.642c-0.999-0.032-1.816-1.189-2.654-2.784s-1.278-5.704-1.262-7.379
			c0.016-1.676,0.161-2.315,0-2.299c-0.161,0.017-0.521,0.639-0.609,1.088c-0.459,2.343-0.071,5.435-0.071,5.677
			c0.162,2.946,2.069,8.451,4.694,8.468c2.626,0.016,3.712-3.886,3.948-4.519c0.535-1.432,1.294-4.855,2.898-8.289
			c1.561-3.338,4.672-3.366,4.962-3.27c0.29,0.097,3.207,6.831,8.217,7.121s6.702-3.803,7.12-4.559
			c0.419-0.758,0.838-0.951,0.951-1.064c0.112-0.113,0.418,0.178,0.418,0.161c0.838,1.531,6.734,4.817,7.941,3.69
			c1.209-1.128,1.997-3.435,2.031-3.98C183.193,62.625,182.047,56.081,179.454,55.549z M179.8,62.801
			c-0.098-0.048-3.162-1.014-3.934-2.316c0,0,2.702-3.21,4.15,2.316C180.04,62.85,179.896,62.85,179.8,62.801z"/>
	</g>
</g>
<path fill="#FFFFFF" d="M127.113,46.087l-0.081-0.258l1.482-0.016l0.653-0.025c0,0-0.131-0.464-0.653-0.796
	c-0.292-0.154-4.318-2.61-5.3-2.933c-0.033,0.016-0.774,4.511-0.774,4.511s0.999,0.064,1.241,0.419s2.152,3.071,2.949,3.851
	c0.778,0.762,3.914,3.962,10.375,6.572c2.424,0.675,3.157,2.165,3.157,2.165s-2.676,2.168-4.93,3.684
	c-0.711,0.478-11.141,7.156-15.578,9.118c-0.146,0.064-4.324,1.976-5.371,0.206c-0.897-1.514-1.069-3.074,0.704-7.682
	c0,0.016,0.516-1.289,0.516-1.289l0.344-1.375c0,0-1.074,1.176-2.492,5.414c-0.771,1.936-1.798,7.024,0.087,8.763
	c1.884,1.741,3.78,1.118,7.219-0.432c3.989-1.798,17.748-10.149,19.771-12.847c0.874-1.166,1.004-2.623,1.068-3.205
	c0.039-0.35,0.375-3.526-1.068-4.92c-0.938-0.906-1.542-1.337-3.476-2.272c-1.933-0.934-7.072-3.511-9.086-5.912
	C127.854,46.829,127.113,46.087,127.113,46.087z"/>
<polygon fill="#FFFFFF" points="121.49,57.998 123.471,54.083 127.547,56.967 125.55,61.026 "/>
<polygon fill="#FFFFFF" points="83.393,80.8 85.374,76.884 89.45,79.769 87.452,83.829 "/>
<polygon fill="#FFFFFF" points="89.907,79.95 91.889,76.036 95.964,78.917 93.967,82.978 "/>
<polygon fill="#FFFFFF" points="141.742,51.908 143.725,47.993 147.8,50.876 145.802,54.937 "/>
<polygon fill="#FFFFFF" points="148.257,51.059 150.239,47.144 154.314,50.028 152.316,54.087 "/>
<path fill="#FFFFFF" d="M112.359,37l-0.084-0.348l2.162,0.085c0,0,0.053-0.357-0.341-0.81c-0.288-0.331-4.462-4.157-4.462-4.157
	l-1.337,4.495c0,0,0.934,0.531,1.016,0.773c0.08,0.241,0.95,2.803,1.401,3.56c0.451,0.758,2.98,5.252,3.463,5.945
	c0,0.032,0.51,0.682,0.532,1.82c0,0.032-0.097,0.242-0.161,0.29c-0.065,0.048-2.852,1.82-6.058,2.143l-1.966,0.047l-1.847,3.578
	c0,0,2.121,0.772,2.299,0.934c0.177,0.161,2.867,1.262,4.575,1.772c1.553,0.464,3.915,0.982,4.301,1.305
	c0.897,0.414,0.983,1.225,0.983,1.225s-6.058,4.73-19.589,7.715c-1.225,0.194-19.203,3.933-35.185-1.996
	c-0.257-0.129-7.819-2.621-13.21-7.088c-0.515-0.516-4.768-4.318-4.768-4.318l-2.213-2.384l1.032,2.32c0,0,6.465,9.537,6.788,9.858
	c0.322,0.323,6.058,5.285,20.169,8.506c6.186,1.417,18.43,0.838,24.036-0.128c5.607-0.967,19.203-4.662,23.456-9.603
	c0.258-0.322,2.384-4.317,2.255-5.413c0.15-1.375-1.031-2.513-1.804-2.706c-0.773-0.194-4.511-1.225-4.898-1.354
	c0.129,0.129,3.741-2.061,3.673-6.057c0.128-3.158-0.644-3.995-0.837-4.446c-0.193-0.452-3.16-5.071-3.16-5.071L112.359,37z"/>
<path fill="#FFFFFF" d="M88.438,45.863l-2.231,3.699v0.113c0,0,5.53,0.056,6.222,0.295c0.569,0.197-0.015,0.577-0.015,0.577
	s-4.597,1.95-5.98,2.458c-0.254,0.085-0.367,0.366-0.367,0.366s5.178-0.361,6.438-0.931c1.594-1.208,3.557-4.347,3.698-4.715
	c0.142-0.367,0.142-0.536,0.029-0.621c-0.114-0.084-0.791-1.299-4.01-1.356C89.002,45.695,88.438,45.863,88.438,45.863z"/>
<path fill="#FFFFFF" d="M119.707,22.45c0,0-19.555,6.479-30.232,10.038c-10.678,3.559-26.251,9.924-26.251,9.924l-2.244,3.869
	c0,0,26.676-9.85,27.915-10.314c1.238-0.465,29.062-10.117,29.062-10.117L119.707,22.45z"/>
<g>
	<g>
		<path fill="#FFFFFF" d="M135.445,26.843c1.844-4.164,0.395-5.073,0.027-5.318c-0.865-0.574-1.951,0.148-2.935,0.923
			c-1.107,0.872-1.704,1.815-1.536,3.157c0.154,1.233,2.248,2.562,2.582,2.767c0.029,0.019,0.045,0.027,0.045,0.027l0.055,0.032
			c-0.895,1.214-4.484,4.617-8.116,7.019c-2.308,1.527-8.538,5.803-8.538,5.803s1.411-0.521,1.606-0.661
			c0.867-0.404,4.88-2.665,8.26-4.622c3.381-1.956,7.347-7.096,7.347-7.096s0.196,0.139,0.224,0.112
			c0.698,0.307,1.453,1.816,1.453,1.816s0,0.167,0.224-0.14c0.223-0.308,0.419-2.04,0.419-2.487S135.445,26.843,135.445,26.843z
			 M134.633,26.359c0,0-1.73-1.512-1.984-1.676c-0.411-0.266-0.411-0.699-0.411-0.699c1.677-1.146,2.366-0.419,2.59,0.084
			C135.243,24.995,134.633,26.359,134.633,26.359z"/>
	</g>
</g>
<g>
	<g>
		<path fill="#FFFFFF" d="M159.33,27.953c1.844-4.163,0.396-5.073,0.027-5.317c-0.864-0.574-1.95,0.148-2.935,0.922
			c-1.107,0.872-1.704,1.816-1.536,3.157c0.155,1.234,2.247,2.562,2.582,2.767c0.029,0.019,0.045,0.027,0.045,0.027l0.056,0.033
			c-0.896,1.213-4.485,4.615-8.117,7.018c-2.308,1.526-8.537,5.802-8.537,5.802s1.409-0.521,1.605-0.661
			c0.866-0.404,4.88-2.665,8.261-4.622c3.381-1.956,7.347-7.095,7.347-7.095s0.195,0.139,0.224,0.111
			c0.698,0.308,1.453,1.816,1.453,1.816s0,0.168,0.223-0.14c0.225-0.307,0.419-2.04,0.419-2.486S159.33,27.953,159.33,27.953z
			 M158.52,27.47c0,0-1.73-1.513-1.983-1.677c-0.412-0.266-0.412-0.699-0.412-0.699c1.677-1.145,2.365-0.418,2.591,0.085
			C159.129,26.104,158.52,27.47,158.52,27.47z"/>
	</g>
</g>
<g>
	<g>
		<path fill="#FFFFFF" d="M229.086,37.87c1.476-3.331,0.316-4.059,0.021-4.254c-0.691-0.46-1.562,0.118-2.348,0.737
			c-0.886,0.697-1.363,1.453-1.229,2.525c0.123,0.988,1.799,2.05,2.065,2.214c0.023,0.014,0.036,0.021,0.036,0.021l0.045,0.026
			c-0.717,0.971-3.588,3.694-6.493,5.615c-1.848,1.222-6.83,4.642-6.83,4.642s1.128-0.417,1.284-0.528
			c0.692-0.324,3.904-2.133,6.608-3.697c2.705-1.564,5.877-5.676,5.877-5.676s0.156,0.111,0.18,0.089
			c0.559,0.246,1.163,1.454,1.163,1.454s0,0.133,0.178-0.113c0.179-0.246,0.335-1.632,0.335-1.989
			C229.979,38.579,229.086,37.87,229.086,37.87z M228.438,37.483c0,0-1.385-1.21-1.588-1.341c-0.329-0.213-0.329-0.56-0.329-0.56
			c1.342-0.917,1.893-0.335,2.072,0.067C228.924,36.392,228.438,37.483,228.438,37.483z"/>
	</g>
</g>
<path fill="#FFFFFF" d="M170.004,31.25l-0.001,0.519c0,0-0.735-0.586-1.72-0.892c-0.022,0.012-0.237-0.102-0.237-0.147
	s0.192-1.8,0.328-1.947s0.497-0.339,0.611-0.339c0.112,0,2.191,0.825,3.148,4.653c0.012,0,0.433,1.76,0.433,1.76l0.126-1.014
	c0,0,0.448-4.222,0.531-4.619c0.113-0.541,0.527-1.487,1.194-1.498c0.668-0.012,1.853,1.111,1.853,1.111l-0.587,1.543
	c0,0-0.943-0.849-1.316-0.874c-0.782-0.052-0.928,1.246-1.132,3.464c-0.204,2.219-0.34,2.717-0.487,3.057
	c-0.146,0.34-0.306,0.589-0.306,0.589c-0.71-3.644-2.403-5.411-2.403-5.411"/>
<path fill="#FFFFFF" d="M204.583,41.473v0.518c0,0-0.735-0.586-1.72-0.893c-0.023,0.012-0.239-0.102-0.239-0.146
	c0-0.045,0.192-1.801,0.329-1.947c0.136-0.147,0.498-0.34,0.61-0.34c0.114,0,2.192,0.826,3.149,4.654
	c0.013,0,0.432,1.759,0.432,1.759l0.126-1.014c0,0,0.449-4.223,0.533-4.619c0.113-0.541,0.525-1.487,1.193-1.499
	c0.668-0.011,1.853,1.111,1.853,1.111l-0.586,1.543c0,0-0.944-0.848-1.316-0.874c-0.783-0.052-0.93,1.246-1.133,3.464
	c-0.204,2.219-0.341,2.717-0.487,3.057c-0.146,0.34-0.307,0.589-0.307,0.589c-0.709-3.643-2.403-5.411-2.403-5.411"/>
<path fill="#FFFFFF" d="M171.229,47.732c0,0-0.386,0.146-0.551,0.357c-0.164,0.209-1.382,1.792-2.07,4.595
	c-0.714,2.911,0.906,3.432,0.906,3.432s1.035,0.485,1.973-1.835c0-0.015,0.345-0.763,0.328-1.167c0,0-0.015-0.315-0.268-0.09
	c-0.471,0.415-0.386,0.944-0.555,1.136c-0.314,0.36-0.329,0.315-0.434,0.345s-1.621-0.019-1.142-2.338
	c0.55-1.748,0.841-2.33,1.326-3.366C170.743,48.77,171.229,47.732,171.229,47.732z"/>
<path fill="#FFFFFF" d="M99.864,54.819c0,0-0.386,0.146-0.55,0.356c-0.165,0.209-1.384,1.792-2.071,4.596
	c-0.714,2.911,0.906,3.431,0.906,3.431s1.036,0.485,1.973-1.834c0-0.015,0.344-0.764,0.329-1.167c0,0-0.016-0.315-0.269-0.09
	c-0.471,0.415-0.385,0.944-0.554,1.137c-0.313,0.359-0.329,0.314-0.434,0.344c-0.104,0.03-1.621-0.019-1.143-2.338
	c0.551-1.748,0.842-2.331,1.327-3.366C99.379,55.857,99.864,54.819,99.864,54.819z"/>
<path fill="#FFFFFF" d="M185.063,36.078c0,0-9.89,3.455-14.299,5.004c-4.41,1.549-12.673,5.124-12.673,5.124l-0.794,2.145
	c0,0,24.23-9.493,26.177-9.851C183.436,38.46,185.063,36.078,185.063,36.078z"/>
<path fill="#FFFFFF" d="M240.627,58.184l-0.011,0.024C240.644,58.197,240.627,58.184,240.627,58.184z M239.238,58.111
	c-1.585-0.195-6.631-1.317-12.091-4.145c-5.461-2.828-8.312-2.072-8.387-2.048c-5.313,1.342-5.411,7.265-5.362,8.045
	c0.049,0.78,1,4.315,1,4.315s-0.453-0.127-0.519-0.127c-3.93-1.611-6.444-5.928-6.83-6.507
	c-3.287-5.542-10.182-12.694-10.826-13.404c-0.645-0.708-6.572-6.25-6.572-6.25l3.545-1.869c10.89-4.64,21.501-7.646,26.87-8.377
	c3.782-0.514,3.286,2.062,3.093,2.32c-0.192,0.257-1.976,3.351-2.233,3.737c-0.257,0.387-2.558,5.022-3.051,6.444
	c-0.772,2.234-0.472,2.792-0.472,2.792s0.73-1.439,0.73-1.503c1.074-2.535,3.137-6.188,4.897-9.215
	c1.11-1.911,2.491-3.673,2.642-6.701c0.154-3.106-8.184-1.29-8.312-1.225c-16.712,3.952-28.548,10.181-28.548,10.181l-1.288,2.384
	l-0.901,2.9c0,0,3.608,4.381,3.672,4.381c5.07,6.101,11.549,16.439,11.6,16.626c0.129,0.472,0.43,0.945,0.172,1.245
	c-0.546,0.639-4.166,1.762-4.166,1.762l-0.322-0.558c-5.479-9.924-9.796-1.611-9.925-1.096c-1.654,3.287,0.066,4.732,0.066,4.795
	c2.212,2.982,7.995,1.004,8.188,1.262c0.193,0.259,0.519,1.231,0.519,1.297c-7.607,8.284-15.608,10.259-16.999,10.367
	c-7.996,0.571-7.535-6.128-7.276-8.459c0.235-2.113,1.845-7.023,1.845-7.023l-0.744,0.713c0,0-0.098,0.206-0.354,0.656
	c-1.782,3.357-2.234,7.988-2.234,8.633c-0.131,11.684,9.28,11.494,16.7,6.376c7.634-5.266,8.726-7.135,9.679-8.577
	c0.756-1.146,1.146-4.713,1.146-4.713l2.926-1.292c0,0,1.804-1.39,2.146-4.363c0.341-2.974-0.536-4.583-0.536-4.583l0.047-0.438
	c0,0,2.05,3.485,5.486,7.849c3.438,4.364,7.239,3.997,7.239,3.997l0.268,2.804l0.316-0.097c0,0,0.122-0.025,0.415-0.707
	c0.292-0.684,0.351-2.244,0.351-2.244s0.964-0.239,0.988-0.216c3.652-0.601,13.22-5.512,16.969-6.186
	c1.676-0.301,3.952,0.042,3.952,0.042l1.862-3.903C240.561,58.23,240.305,58.243,239.238,58.111z M189.716,63.895
	c-0.04-0.033-0.146-0.274-0.057-0.371s0.645-1.354,2.127-1.023c0.024,0,1.825,0.663,2.44,1.973
	C194.227,64.474,190.812,64.796,189.716,63.895z M224.749,62.197c-3.201,1.169-8.036,2.184-8.036,2.184s-1.785-5.726-1.692-6.157
	c0.093-0.432,0.894-1.693,2.062-2.094c1.17-0.399,3.672-0.549,6.25,0.74c2.479,1.239,6.442,2.957,6.802,3.047
	c0.378,0.095,0.585,0.154,0.585,0.154S225.346,61.979,224.749,62.197z"/>
<g>
	<path fill="#FFFFFF" d="M32.368,93.65c-0.651-0.375-1.446-0.562-2.384-0.562c-0.625,0-1.248,0.134-1.865,0.399
		c-0.62,0.265-1.172,0.663-1.653,1.195c-0.483,0.529-0.873,1.191-1.173,1.989c-0.298,0.795-0.447,1.731-0.447,2.806
		c0,0.816,0.11,1.574,0.335,2.269s0.545,1.295,0.966,1.806c0.422,0.511,0.94,0.907,1.549,1.193c0.611,0.286,1.312,0.428,2.097,0.428
		c0.179,0,0.379-0.009,0.604-0.029c0.225-0.02,0.441-0.043,0.651-0.071c0.213-0.026,0.405-0.065,0.582-0.113
		c0.176-0.046,0.306-0.098,0.387-0.153c0.024-0.163,0.038-0.367,0.045-0.614c0.006-0.243,0.008-0.517,0.008-0.817
		c0-1.103-0.02-1.918-0.058-2.442c-0.038-0.525-0.062-0.884-0.075-1.075c0.137,0.027,0.317,0.052,0.542,0.073
		c0.223,0.019,0.546,0.029,0.969,0.029c0.489,0,0.855-0.011,1.092-0.029c0.24-0.021,0.428-0.046,0.562-0.073
		c-0.027,0.11-0.05,0.287-0.071,0.532c-0.021,0.244-0.037,0.527-0.05,0.847c-0.015,0.32-0.024,0.66-0.033,1.021
		c-0.006,0.361-0.009,0.704-0.009,1.03v0.674c0,0.34,0.003,0.657,0.008,0.949c0.007,0.293,0.021,0.502,0.044,0.622
		c-0.896,0.261-1.803,0.463-2.72,0.612c-0.917,0.149-1.825,0.225-2.721,0.225c-1.169,0-2.247-0.153-3.231-0.46
		c-0.986-0.306-1.835-0.753-2.549-1.347c-0.714-0.59-1.27-1.306-1.671-2.143c-0.4-0.839-0.6-1.78-0.6-2.828
		c0-1.294,0.213-2.426,0.642-3.399s1.02-1.783,1.774-2.429c0.753-0.646,1.648-1.133,2.683-1.46c1.033-0.326,2.15-0.49,3.345-0.49
		c1.032,0,1.927,0.106,2.682,0.319s1.5,0.518,2.233,0.915c-0.107,0.353-0.213,0.699-0.314,1.04c-0.103,0.34-0.187,0.687-0.256,1.041
		h-0.286C33.568,94.519,33.022,94.024,32.368,93.65z"/>
	<path fill="#FFFFFF" d="M37.691,96.285c0.373-0.885,0.9-1.66,1.58-2.326c0.683-0.667,1.503-1.191,2.469-1.572
		c0.967-0.38,2.041-0.572,3.225-0.572c1.088,0,2.101,0.151,3.039,0.449c0.938,0.301,1.754,0.747,2.449,1.349
		c0.693,0.598,1.241,1.356,1.643,2.275c0.4,0.919,0.601,1.991,0.601,3.216c0,1.02-0.192,1.973-0.581,2.856
		c-0.388,0.885-0.925,1.658-1.612,2.318c-0.688,0.659-1.506,1.173-2.459,1.541c-0.951,0.369-1.999,0.551-3.142,0.551
		c-1.074,0-2.083-0.132-3.029-0.396c-0.945-0.266-1.768-0.696-2.469-1.286c-0.701-0.594-1.254-1.349-1.662-2.267
		c-0.408-0.92-0.612-2.018-0.612-3.297C37.13,98.117,37.316,97.17,37.691,96.285z M49.022,96.301
		c-0.218-0.702-0.52-1.297-0.907-1.787c-0.39-0.49-0.856-0.866-1.409-1.134c-0.551-0.266-1.149-0.398-1.805-0.398
		c-0.692,0-1.314,0.169-1.867,0.5c-0.549,0.334-1.016,0.788-1.396,1.361c-0.381,0.57-0.669,1.239-0.865,2.011
		c-0.197,0.77-0.297,1.59-0.297,2.46c0,1.089,0.114,2.009,0.348,2.758c0.23,0.75,0.542,1.352,0.937,1.807
		c0.395,0.455,0.851,0.786,1.366,0.989c0.517,0.205,1.061,0.306,1.633,0.306c0.611,0,1.197-0.127,1.752-0.387
		c0.557-0.26,1.044-0.652,1.459-1.184c0.414-0.532,0.747-1.205,0.998-2.022c0.253-0.816,0.378-1.781,0.378-2.898
		C49.349,97.795,49.239,97.003,49.022,96.301z"/>
	<path fill="#FFFFFF" d="M62.401,97.113c0.667-1.75,1.267-3.425,1.797-5.032c0.34,0.07,0.638,0.104,0.896,0.104
		c0.259,0,0.558-0.034,0.898-0.104c-0.341,0.801-0.75,1.768-1.225,2.897c-0.476,1.131-0.972,2.328-1.489,3.593
		c-0.516,1.268-1.027,2.554-1.529,3.859c-0.503,1.305-0.951,2.532-1.347,3.675c-0.271-0.036-0.57-0.054-0.898-0.054
		c-0.325,0-0.626,0.018-0.896,0.054c-0.205-0.545-0.454-1.205-0.744-1.98c-0.294-0.775-0.606-1.6-0.938-2.47
		c-0.335-0.872-0.686-1.763-1.051-2.676c-0.367-0.911-0.721-1.792-1.062-2.643c-0.34-0.851-0.66-1.645-0.959-2.378
		c-0.298-0.735-0.557-1.363-0.774-1.878c0.312,0.026,0.621,0.053,0.928,0.073c0.306,0.021,0.606,0.031,0.907,0.031
		c0.298,0,0.598-0.01,0.898-0.031c0.299-0.021,0.597-0.047,0.897-0.073c0.231,0.761,0.493,1.564,0.785,2.409
		c0.294,0.843,0.595,1.703,0.907,2.58c0.313,0.879,0.637,1.76,0.969,2.644c0.334,0.887,0.656,1.757,0.97,2.614
		C61.048,100.6,61.737,98.862,62.401,97.113z"/>
	<path fill="#FFFFFF" d="M67.838,94.725c-0.026-0.879-0.066-1.762-0.121-2.645c0.614,0.013,1.222,0.034,1.821,0.062
		c0.602,0.029,1.208,0.042,1.82,0.042c1.005,0,1.901-0.01,2.683-0.031c0.781-0.021,1.308-0.047,1.582-0.073
		c-0.054,0.218-0.081,0.503-0.081,0.859c0,0.217,0.005,0.388,0.02,0.509c0.012,0.125,0.032,0.259,0.061,0.411
		c-0.396-0.028-0.827-0.055-1.297-0.081c-0.467-0.028-0.924-0.055-1.367-0.083c-0.44-0.025-0.839-0.047-1.191-0.062
		c-0.354-0.013-0.606-0.02-0.755-0.02c-0.057,0.747-0.09,1.487-0.097,2.221c-0.006,0.734-0.011,1.474-0.011,2.222
		c0.885-0.015,1.684-0.033,2.397-0.061c0.714-0.026,1.458-0.06,2.235-0.1c-0.042,0.231-0.068,0.408-0.083,0.53
		c-0.014,0.122-0.021,0.249-0.021,0.387c0,0.109,0.011,0.221,0.031,0.338c0.022,0.114,0.044,0.279,0.073,0.498
		c-1.551-0.123-3.095-0.187-4.632-0.187c0,0.436-0.003,0.867-0.012,1.304c-0.009,0.435-0.013,0.869-0.013,1.305
		c0,0.883,0.018,1.73,0.053,2.545c0.775,0,1.549-0.02,2.324-0.058c0.777-0.037,1.56-0.1,2.347-0.189
		c-0.026,0.149-0.048,0.286-0.061,0.408c-0.015,0.122-0.02,0.292-0.02,0.51c0,0.219,0.005,0.388,0.02,0.512
		c0.013,0.121,0.035,0.225,0.061,0.306c-0.366-0.018-0.82-0.031-1.357-0.041c-0.535-0.009-1.274-0.013-2.212-0.013
		c-0.83,0-1.503,0-2.018,0c-0.502,0-0.905,0-1.21,0s-0.537,0.004-0.691,0.013c-0.157,0.01-0.288,0.023-0.397,0.041
		c0.054-0.844,0.094-1.705,0.121-2.582c0.027-0.878,0.041-1.881,0.041-3.013v-2.776C67.879,96.603,67.865,95.601,67.838,94.725z"/>
	<path fill="#FFFFFF" d="M81.291,99.679v0.836c0,1.129,0.014,2.132,0.041,3.008c0.027,0.88,0.065,1.739,0.12,2.582
		c-0.233-0.036-0.483-0.054-0.755-0.054c-0.273,0-0.579,0-0.919,0c-0.34,0-0.646,0-0.919,0c-0.272,0-0.522,0.018-0.754,0.054
		c0.053-0.844,0.093-1.705,0.118-2.582c0.027-0.878,0.042-1.881,0.042-3.013v-2.776c0-1.131-0.015-2.133-0.042-3.009
		c-0.025-0.879-0.065-1.762-0.118-2.645c0.232,0.026,0.482,0.053,0.755,0.073c0.271,0.021,0.58,0.031,0.919,0.031
		c0.367,0,0.786-0.017,1.256-0.052c0.469-0.036,1.051-0.053,1.745-0.053c0.518,0,0.96,0.013,1.326,0.04
		c0.369,0.027,0.684,0.069,0.95,0.122c0.265,0.056,0.498,0.127,0.694,0.215c0.196,0.09,0.384,0.193,0.561,0.315
		c0.409,0.301,0.732,0.672,0.97,1.114c0.24,0.442,0.357,0.97,0.357,1.581c0,0.993-0.271,1.804-0.815,2.429
		c-0.546,0.627-1.328,1.071-2.349,1.327c0.651,1.159,1.352,2.31,2.1,3.462c0.75,1.149,1.497,2.29,2.244,3.419
		c-0.312-0.036-0.618-0.054-0.918-0.054c-0.298,0-0.604,0-0.916,0c-0.313,0-0.624,0-0.928,0c-0.308,0-0.615,0.018-0.93,0.054
		l-3.651-6.426H81.291z M84.322,94.492c-0.125-0.352-0.31-0.621-0.561-0.804c-0.252-0.185-0.579-0.303-0.98-0.357
		c-0.401-0.056-0.88-0.083-1.437-0.083c-0.036,1.849-0.053,3.699-0.053,5.549c0.082,0.013,0.16,0.022,0.234,0.031
		c0.074,0.007,0.146,0.01,0.214,0.01c0.894,0,1.58-0.241,2.054-0.723c0.474-0.483,0.713-1.215,0.713-2.193
		C84.507,95.323,84.444,94.846,84.322,94.492z"/>
	<path fill="#FFFFFF" d="M90.871,93.774c-0.028-0.64-0.049-1.204-0.062-1.693c0.38,0.07,0.687,0.104,0.917,0.104
		c0.234,0,0.539-0.034,0.92-0.104c1.485,1.646,2.953,3.266,4.403,4.857c1.449,1.593,2.938,3.212,4.464,4.86v-1.778v-1.979
		c0-0.666-0.004-1.324-0.01-1.971c-0.006-0.646-0.012-1.241-0.019-1.784c-0.007-0.545-0.021-1.014-0.041-1.41
		c-0.02-0.395-0.042-0.66-0.07-0.795c0.382,0.07,0.688,0.104,0.921,0.104c0.23,0,0.538-0.034,0.919-0.104
		c-0.073,1.237-0.13,2.357-0.172,3.356c-0.044,1-0.08,1.945-0.109,2.828c-0.028,0.885-0.047,1.759-0.053,2.624
		c-0.01,0.864-0.011,1.787-0.011,2.767v2.449c-0.272-0.036-0.552-0.054-0.836-0.054c-0.301,0-0.565,0.018-0.796,0.054
		c-2.802-3.267-5.772-6.554-8.914-9.86c-0.016,0.395-0.03,0.789-0.038,1.182c-0.011,0.397-0.015,0.799-0.015,1.208V101
		c0,0.816,0.003,1.51,0.011,2.082c0.006,0.573,0.018,1.057,0.033,1.45c0.016,0.396,0.029,0.718,0.045,0.969
		c0.015,0.253,0.03,0.452,0.044,0.604c-0.164-0.036-0.326-0.054-0.489-0.054c-0.164,0-0.32,0-0.47,0
		c-0.313,0-0.625,0.018-0.937,0.054c0.026-0.109,0.061-0.497,0.101-1.165c0.042-0.666,0.085-1.479,0.133-2.438
		c0.049-0.961,0.089-2.001,0.125-3.126c0.032-1.122,0.05-2.199,0.05-3.232C90.915,95.203,90.899,94.416,90.871,93.774z"/>
	<path fill="#FFFFFF" d="M107.75,101.534c-0.11,1.521-0.22,3.048-0.327,4.571c-0.164-0.036-0.326-0.054-0.489-0.054
		c-0.164,0-0.32,0-0.47,0c-0.161,0-0.324,0-0.478,0c-0.158,0-0.317,0.018-0.479,0.054c0.433-2.342,0.82-4.669,1.163-6.981
		c0.34-2.315,0.652-4.661,0.937-7.043c0.149,0.026,0.289,0.053,0.418,0.073c0.129,0.021,0.27,0.031,0.417,0.031
		c0.125,0,0.253-0.01,0.389-0.031c0.137-0.021,0.278-0.047,0.429-0.073c0.366,0.814,0.75,1.646,1.153,2.489
		c0.402,0.844,0.801,1.686,1.204,2.521c0.401,0.84,0.803,1.661,1.203,2.461c0.401,0.805,0.786,1.566,1.152,2.286
		c0.816-1.523,1.629-3.119,2.438-4.787c0.809-1.668,1.581-3.324,2.315-4.97c0.341,0.07,0.632,0.104,0.876,0.104
		c0.232,0,0.519-0.034,0.859-0.104c0.136,1.171,0.28,2.43,0.438,3.775c0.155,1.349,0.308,2.664,0.459,3.95
		c0.148,1.287,0.297,2.487,0.447,3.604c0.149,1.117,0.286,2.016,0.409,2.695c-0.272-0.036-0.548-0.054-0.825-0.054
		c-0.28,0-0.555,0-0.828,0s-0.551,0-0.837,0c-0.285,0-0.571,0.018-0.857,0.054c-0.068-1.401-0.179-2.92-0.334-4.554
		c-0.157-1.632-0.317-3.253-0.48-4.858h-0.041c-0.776,1.605-1.536,3.187-2.283,4.736c-0.75,1.552-1.49,3.11-2.224,4.676
		c-0.069-0.018-0.134-0.031-0.194-0.041c-0.061-0.009-0.126-0.013-0.193-0.013c-0.068,0-0.133,0.004-0.193,0.013
		c-0.062,0.01-0.127,0.023-0.194,0.041c-0.735-1.523-1.464-3.05-2.193-4.571c-0.729-1.527-1.479-3.071-2.254-4.635h-0.041
		C108.021,98.462,107.861,100.006,107.75,101.534z"/>
	<path fill="#FFFFFF" d="M124.508,94.725c-0.027-0.879-0.067-1.762-0.119-2.645c0.612,0.013,1.22,0.034,1.818,0.062
		c0.603,0.029,1.209,0.042,1.822,0.042c1.005,0,1.9-0.01,2.681-0.031c0.782-0.021,1.311-0.047,1.583-0.073
		c-0.055,0.218-0.083,0.503-0.083,0.859c0,0.217,0.008,0.388,0.021,0.509c0.015,0.125,0.034,0.259,0.062,0.411
		c-0.395-0.028-0.827-0.055-1.297-0.081c-0.467-0.028-0.924-0.055-1.365-0.083c-0.443-0.025-0.84-0.047-1.193-0.062
		c-0.355-0.013-0.606-0.02-0.756-0.02c-0.058,0.747-0.087,1.487-0.095,2.221c-0.007,0.734-0.01,1.474-0.01,2.222
		c0.883-0.015,1.681-0.033,2.396-0.061c0.714-0.026,1.461-0.06,2.235-0.1c-0.041,0.231-0.068,0.408-0.082,0.53
		c-0.015,0.122-0.021,0.249-0.021,0.387c0,0.109,0.009,0.221,0.029,0.338c0.022,0.114,0.045,0.279,0.073,0.498
		c-1.552-0.123-3.095-0.187-4.631-0.187c0,0.436-0.003,0.867-0.015,1.304c-0.007,0.435-0.013,0.869-0.013,1.305
		c0,0.883,0.018,1.73,0.054,2.545c0.774,0,1.548-0.02,2.324-0.058c0.775-0.037,1.557-0.1,2.347-0.189
		c-0.027,0.149-0.048,0.286-0.062,0.408s-0.021,0.292-0.021,0.51c0,0.219,0.006,0.388,0.021,0.512
		c0.014,0.121,0.035,0.225,0.062,0.306c-0.367-0.018-0.819-0.031-1.357-0.041c-0.536-0.009-1.276-0.013-2.213-0.013
		c-0.83,0-1.5,0-2.017,0c-0.501,0-0.905,0-1.21,0c-0.308,0-0.537,0.004-0.692,0.013c-0.156,0.01-0.289,0.023-0.396,0.041
		c0.052-0.844,0.092-1.705,0.119-2.582c0.025-0.878,0.04-1.881,0.04-3.013v-2.776C124.548,96.603,124.534,95.601,124.508,94.725z"/>
	<path fill="#FFFFFF" d="M135.077,93.774c-0.029-0.64-0.05-1.204-0.063-1.693c0.38,0.07,0.688,0.104,0.918,0.104
		c0.233,0,0.538-0.034,0.919-0.104c1.484,1.646,2.953,3.266,4.404,4.857c1.448,1.593,2.936,3.212,4.462,4.86v-1.778v-1.979
		c0-0.666-0.004-1.324-0.012-1.971c-0.006-0.646-0.013-1.241-0.021-1.784c-0.006-0.545-0.017-1.014-0.037-1.41
		c-0.021-0.395-0.043-0.66-0.069-0.795c0.381,0.07,0.688,0.104,0.921,0.104c0.229,0,0.533-0.034,0.915-0.104
		c-0.07,1.237-0.128,2.357-0.17,3.356c-0.045,1-0.08,1.945-0.107,2.828c-0.03,0.885-0.048,1.759-0.056,2.624
		c-0.009,0.864-0.009,1.787-0.009,2.767v2.449c-0.274-0.036-0.552-0.054-0.837-0.054c-0.301,0-0.564,0.018-0.796,0.054
		c-2.801-3.267-5.773-6.554-8.914-9.86c-0.017,0.395-0.03,0.789-0.042,1.182c-0.006,0.397-0.011,0.799-0.011,1.208V101
		c0,0.816,0.002,1.51,0.01,2.082c0.007,0.573,0.019,1.057,0.034,1.45c0.014,0.396,0.03,0.718,0.044,0.969
		c0.015,0.253,0.03,0.452,0.043,0.604c-0.164-0.036-0.324-0.054-0.49-0.054c-0.161,0-0.319,0-0.468,0
		c-0.312,0-0.625,0.018-0.937,0.054c0.026-0.109,0.062-0.497,0.101-1.165c0.04-0.666,0.086-1.479,0.135-2.438
		c0.045-0.961,0.086-2.001,0.121-3.126c0.034-1.122,0.052-2.199,0.052-3.232C135.12,95.203,135.105,94.416,135.077,93.774z"/>
	<path fill="#FFFFFF" d="M153.211,94.334c-0.006-0.327-0.021-0.563-0.05-0.715c-0.204,0-0.456,0.008-0.756,0.022
		c-0.3,0.012-0.619,0.028-0.957,0.047c-0.342,0.019-0.688,0.048-1.042,0.079c-0.353,0.033-0.681,0.069-0.979,0.109
		c0.028-0.149,0.052-0.299,0.071-0.451c0.021-0.151,0.031-0.299,0.031-0.447c0-0.149-0.011-0.301-0.031-0.45
		c-0.02-0.149-0.043-0.299-0.071-0.448c0.463,0.013,0.881,0.029,1.257,0.041c0.372,0.017,0.754,0.025,1.141,0.033
		c0.387,0.007,0.809,0.014,1.266,0.021c0.457,0.008,1.005,0.01,1.644,0.01c0.641,0,1.19-0.002,1.647-0.01
		c0.455-0.007,0.875-0.014,1.257-0.021c0.381-0.008,0.752-0.017,1.112-0.033c0.359-0.012,0.749-0.028,1.171-0.041
		c-0.026,0.149-0.051,0.299-0.072,0.448c-0.019,0.149-0.028,0.301-0.028,0.45c0,0.148,0.01,0.296,0.028,0.447
		c0.021,0.152,0.046,0.302,0.072,0.451c-0.271-0.04-0.576-0.076-0.919-0.109c-0.34-0.031-0.675-0.061-1.007-0.079
		c-0.337-0.019-0.65-0.035-0.95-0.047c-0.3-0.015-0.551-0.022-0.756-0.022c-0.012,0.068-0.024,0.164-0.029,0.286
		c-0.008,0.122-0.012,0.267-0.012,0.429v1.081v5.1c0,1.129,0.013,2.132,0.04,3.008c0.025,0.88,0.066,1.739,0.12,2.582
		c-0.231-0.036-0.481-0.054-0.754-0.054c-0.271,0-0.578,0-0.921,0c-0.339,0-0.645,0-0.916,0c-0.272,0-0.524,0.018-0.757,0.054
		c0.054-0.843,0.094-1.702,0.121-2.582c0.025-0.876,0.04-1.879,0.04-3.008v-5.1C153.222,95.019,153.218,94.661,153.211,94.334z"/>
	<path fill="#FFFFFF" d="M167.288,96.285c0.377-0.885,0.901-1.66,1.582-2.326c0.68-0.667,1.504-1.191,2.469-1.572
		c0.965-0.38,2.038-0.572,3.223-0.572c1.088,0,2.103,0.151,3.039,0.449c0.939,0.301,1.756,0.747,2.449,1.349
		c0.691,0.598,1.24,1.356,1.644,2.275c0.4,0.919,0.599,1.991,0.599,3.216c0,1.02-0.191,1.973-0.581,2.856
		c-0.388,0.885-0.923,1.658-1.609,2.318c-0.688,0.659-1.508,1.173-2.458,1.541c-0.954,0.369-2.002,0.551-3.144,0.551
		c-1.074,0-2.083-0.132-3.028-0.396c-0.947-0.266-1.771-0.696-2.471-1.286c-0.7-0.594-1.252-1.349-1.661-2.267
		c-0.408-0.92-0.612-2.018-0.612-3.297C166.728,98.117,166.914,97.17,167.288,96.285z M178.621,96.301
		c-0.219-0.702-0.521-1.297-0.91-1.787c-0.385-0.49-0.854-0.866-1.404-1.134c-0.552-0.266-1.154-0.398-1.807-0.398
		c-0.692,0-1.315,0.169-1.867,0.5c-0.549,0.334-1.015,0.788-1.395,1.361c-0.383,0.57-0.672,1.239-0.868,2.011
		c-0.196,0.77-0.296,1.59-0.296,2.46c0,1.089,0.115,2.009,0.348,2.758c0.232,0.75,0.544,1.352,0.937,1.807
		c0.397,0.455,0.851,0.786,1.37,0.989c0.514,0.205,1.058,0.306,1.629,0.306c0.613,0,1.196-0.127,1.755-0.387
		c0.555-0.26,1.044-0.652,1.458-1.184c0.415-0.532,0.748-1.205,0.998-2.022c0.254-0.816,0.377-1.781,0.377-2.898
		C178.945,97.795,178.839,97.003,178.621,96.301z"/>
	<path fill="#FFFFFF" d="M184.584,94.725c-0.026-0.879-0.066-1.762-0.119-2.645c0.613,0.013,1.222,0.034,1.821,0.062
		c0.6,0.029,1.205,0.042,1.819,0.042c1.007,0,1.899-0.01,2.681-0.031c0.784-0.021,1.312-0.047,1.584-0.073
		c-0.056,0.218-0.083,0.503-0.083,0.859c0,0.217,0.007,0.388,0.02,0.509c0.015,0.125,0.035,0.259,0.063,0.411
		c-0.396-0.028-0.828-0.055-1.296-0.081c-0.47-0.028-0.926-0.055-1.368-0.083c-0.441-0.025-0.839-0.047-1.193-0.062
		c-0.353-0.013-0.605-0.02-0.756-0.02c-0.052,0.747-0.086,1.487-0.093,2.221c-0.006,0.734-0.011,1.474-0.011,2.222
		c0.888-0.015,1.687-0.033,2.4-0.061c0.713-0.026,1.457-0.06,2.233-0.1c-0.04,0.231-0.066,0.408-0.083,0.53
		c-0.012,0.122-0.018,0.249-0.018,0.387c0,0.109,0.009,0.221,0.031,0.338c0.019,0.114,0.042,0.279,0.069,0.498
		c-1.551-0.123-3.096-0.187-4.634-0.187v1.041c0,1.132,0.015,2.137,0.042,3.015c0.024,0.88,0.064,1.742,0.115,2.586
		c-0.23-0.036-0.479-0.054-0.754-0.054c-0.273,0-0.579,0-0.92,0c-0.338,0-0.646,0-0.915,0c-0.275,0-0.524,0.018-0.757,0.054
		c0.053-0.844,0.093-1.705,0.119-2.582c0.026-0.878,0.038-1.881,0.038-3.013v-2.776C184.622,96.603,184.61,95.601,184.584,94.725z"
		/>
	<path fill="#FFFFFF" d="M200.641,94.725c-0.027-0.879-0.066-1.762-0.119-2.645c0.231,0.026,0.483,0.053,0.756,0.073
		c0.273,0.021,0.58,0.031,0.921,0.031c0.446,0,0.948-0.017,1.508-0.052c0.557-0.036,1.287-0.053,2.184-0.053
		c1.172,0,2.236,0.104,3.196,0.316c0.957,0.21,1.786,0.566,2.479,1.07c0.695,0.504,1.232,1.183,1.612,2.032
		c0.382,0.852,0.572,1.923,0.572,3.215c0,1.129-0.188,2.15-0.562,3.062c-0.373,0.912-0.883,1.69-1.53,2.337
		c-0.647,0.648-1.394,1.14-2.244,1.479c-0.852,0.341-1.761,0.513-2.728,0.513c-1.02,0-1.892-0.009-2.613-0.027
		c-0.721-0.018-1.347-0.026-1.874-0.026c-0.341,0-0.647,0-0.921,0c-0.272,0-0.524,0.018-0.756,0.054
		c0.053-0.844,0.092-1.705,0.119-2.582c0.027-0.878,0.04-1.881,0.04-3.013v-2.776C200.681,96.603,200.668,95.601,200.641,94.725z
		 M203.707,102.021v1.225c0,0.396,0.005,0.757,0.015,1.084c0.01,0.326,0.013,0.538,0.013,0.634c0.206,0.013,0.449,0.023,0.737,0.034
		c0.284,0.014,0.639,0.018,1.062,0.018c1.538,0,2.754-0.522,3.652-1.572c0.898-1.049,1.348-2.635,1.348-4.759
		c0-0.844-0.11-1.599-0.334-2.265c-0.227-0.669-0.542-1.236-0.95-1.706c-0.41-0.47-0.9-0.831-1.472-1.082
		c-0.573-0.253-1.213-0.38-1.92-0.38c-0.49,0-0.888,0.011-1.194,0.032c-0.306,0.021-0.615,0.044-0.93,0.07
		c0,0.095-0.003,0.308-0.013,0.634c-0.01,0.327-0.012,0.696-0.012,1.104l-0.003,1.225v1.023v3.636V102.021z"/>
	<path fill="#FFFFFF" d="M220.333,106.092c-0.753-0.183-1.408-0.487-1.965-0.917c-0.557-0.428-0.996-0.979-1.312-1.652
		c-0.318-0.675-0.478-1.494-0.478-2.461c0-0.542,0.005-1.032,0.012-1.46c0.01-0.427,0.015-0.827,0.015-1.194s0.004-0.721,0.014-1.06
		c0.008-0.34,0.015-0.694,0.015-1.063c0-1.102-0.008-1.991-0.023-2.673c-0.011-0.682-0.031-1.191-0.06-1.531
		c0.272,0.026,0.553,0.053,0.837,0.073c0.284,0.021,0.563,0.031,0.834,0.031c0.273,0,0.551-0.01,0.835-0.031
		c0.285-0.021,0.565-0.047,0.835-0.073c-0.136,1.319-0.215,2.548-0.243,3.683c-0.027,1.136-0.041,2.288-0.041,3.459
		c0,1.238,0.09,2.234,0.266,2.999c0.173,0.762,0.437,1.348,0.781,1.764c0.346,0.415,0.768,0.69,1.271,0.828
		c0.501,0.135,1.085,0.202,1.749,0.202c0.812,0,1.449-0.202,1.91-0.611c0.462-0.409,0.811-0.954,1.047-1.632
		c0.238-0.681,0.383-1.461,0.438-2.338c0.055-0.876,0.08-1.791,0.08-2.744c0-0.938-0.014-1.873-0.04-2.804
		c-0.025-0.932-0.065-1.868-0.119-2.806c0.192,0.026,0.377,0.053,0.556,0.073c0.177,0.021,0.343,0.031,0.493,0.031
		c0.176,0,0.346-0.01,0.513-0.031c0.162-0.021,0.333-0.047,0.511-0.073c-0.03,0.299-0.061,0.701-0.088,1.203
		c-0.031,0.503-0.062,1.087-0.092,1.746s-0.056,1.39-0.078,2.186c-0.021,0.797-0.035,1.634-0.035,2.521
		c0,2.368-0.507,4.065-1.524,5.092c-1.017,1.029-2.51,1.542-4.479,1.542C221.896,106.37,221.086,106.279,220.333,106.092z"/>
	<path fill="#FFFFFF" d="M232.402,94.725c-0.031-0.879-0.075-1.762-0.141-2.645c0.232,0.026,0.483,0.053,0.757,0.073
		c0.272,0.021,0.58,0.031,0.921,0.031c0.587,0,1.196-0.017,1.841-0.052c0.64-0.036,1.252-0.053,1.838-0.053
		c0.611,0,1.171,0.061,1.675,0.183c0.505,0.123,0.94,0.307,1.309,0.562c0.367,0.25,0.649,0.576,0.849,0.978
		c0.197,0.4,0.295,0.882,0.295,1.438c0,0.558-0.117,1.036-0.35,1.438s-0.518,0.734-0.853,0.999s-0.697,0.473-1.089,0.621
		c-0.39,0.151-0.741,0.253-1.058,0.307v0.036c0.312,0.014,0.68,0.085,1.101,0.214c0.42,0.131,0.822,0.332,1.201,0.604
		c0.381,0.271,0.704,0.625,0.968,1.052c0.266,0.431,0.398,0.953,0.398,1.565c0,0.736-0.133,1.365-0.398,1.881
		c-0.264,0.518-0.616,0.94-1.059,1.27c-0.441,0.326-0.947,0.554-1.518,0.684c-0.571,0.13-1.16,0.195-1.774,0.195
		c-0.544,0-1.05-0.009-1.517-0.027c-0.469-0.018-0.962-0.026-1.478-0.026c-0.367,0-0.745,0-1.131,0
		c-0.387,0-0.696,0.018-0.929,0.054c0.065-0.844,0.109-1.705,0.141-2.582c0.03-0.878,0.045-1.881,0.045-3.013v-2.776
		C232.447,96.603,232.433,95.601,232.402,94.725z M238.604,94.704c-0.073-0.289-0.2-0.543-0.376-0.753
		c-0.179-0.21-0.403-0.379-0.677-0.51c-0.271-0.127-0.61-0.193-1.021-0.193c-0.3,0-0.507,0.004-0.623,0.011
		c-0.116,0.009-0.243,0.024-0.378,0.051c-0.027,0.503-0.046,1.014-0.062,1.527c-0.013,0.515-0.02,0.951-0.02,1.303
		c0,0.366,0.007,0.716,0.015,1.048c0.01,0.335,0.013,0.676,0.013,1.027h0.919c0.284,0,0.565-0.052,0.844-0.162
		c0.279-0.108,0.528-0.269,0.742-0.478c0.221-0.21,0.397-0.479,0.532-0.806c0.137-0.324,0.205-0.705,0.205-1.139
		C238.719,95.305,238.681,94.997,238.604,94.704z M238.211,100.089c-0.427-0.47-1.047-0.705-1.858-0.705
		c-0.192,0-0.354,0.006-0.489,0.012c-0.134,0.011-0.264,0.016-0.387,0.016c0,0.286-0.003,0.58-0.013,0.889
		c-0.008,0.305-0.015,0.668-0.015,1.09c0,0.327,0.007,0.661,0.015,1.001c0.01,0.34,0.013,0.671,0.013,1.001
		c0,0.327,0.006,0.625,0.013,0.897c0.01,0.271,0.014,0.496,0.014,0.674c0.189,0.016,0.365,0.029,0.527,0.038
		c0.165,0.01,0.359,0.014,0.588,0.014c0.299,0,0.581-0.061,0.854-0.184c0.27-0.123,0.507-0.305,0.709-0.542
		c0.201-0.239,0.366-0.53,0.486-0.87c0.122-0.342,0.183-0.738,0.183-1.189C238.85,101.275,238.639,100.562,238.211,100.089z"/>
	<path fill="#FFFFFF" d="M255.646,106.105c-0.324-0.036-0.636-0.054-0.929-0.054c-0.292,0-0.58,0-0.864,0c-0.286,0-0.578,0-0.87,0
		c-0.291,0-0.581,0.018-0.867,0.054c-0.218-0.67-0.44-1.354-0.671-2.051c-0.232-0.696-0.477-1.395-0.736-2.094
		c-0.436-0.019-0.867-0.03-1.304-0.039c-0.435-0.009-0.871-0.013-1.305-0.013c-0.354,0-0.707,0.004-1.064,0.013
		c-0.35,0.009-0.706,0.021-1.059,0.039c-0.271,0.699-0.523,1.397-0.755,2.094c-0.229,0.697-0.442,1.381-0.632,2.051
		c-0.163-0.036-0.324-0.054-0.48-0.054c-0.155,0-0.316,0-0.479,0c-0.162,0-0.326,0-0.488,0s-0.341,0.018-0.53,0.054
		c0.161-0.354,0.38-0.844,0.652-1.471c0.271-0.626,0.569-1.335,0.898-2.124c0.326-0.79,0.675-1.635,1.05-2.543
		c0.373-0.904,0.747-1.818,1.12-2.744c0.376-0.927,0.743-1.841,1.103-2.738c0.36-0.898,0.69-1.735,0.989-2.512
		c0.139,0.028,0.266,0.054,0.39,0.074c0.121,0.023,0.249,0.033,0.387,0.033c0.137,0,0.266-0.01,0.386-0.033
		c0.124-0.021,0.255-0.046,0.389-0.074c0.436,1.158,0.902,2.397,1.397,3.716c0.496,1.32,0.996,2.618,1.499,3.892
		c0.505,1.272,0.994,2.48,1.47,3.625C254.817,104.348,255.253,105.316,255.646,106.105z M248.425,95.916
		c-0.353,0.815-0.688,1.619-0.999,2.415c-0.313,0.795-0.619,1.606-0.918,2.435h3.735c-0.302-0.828-0.598-1.64-0.89-2.435
		C249.062,97.535,248.75,96.731,248.425,95.916z"/>
	<path fill="#FFFFFF" d="M257.778,94.725c-0.025-0.879-0.065-1.762-0.118-2.645c0.228,0.026,0.482,0.053,0.755,0.073
		c0.271,0.021,0.577,0.031,0.917,0.031c0.341,0,0.646-0.01,0.918-0.031c0.272-0.021,0.523-0.047,0.755-0.073
		c-0.053,0.883-0.093,1.766-0.12,2.645c-0.025,0.876-0.037,1.878-0.037,3.009v2.776c0,1.132,0.012,2.135,0.037,3.013
		c0.027,0.877,0.067,1.738,0.12,2.582c-0.231-0.036-0.482-0.054-0.755-0.054s-0.577,0-0.918,0c-0.34,0-0.646,0-0.917,0
		c-0.272,0-0.527,0.018-0.755,0.054c0.053-0.844,0.093-1.705,0.118-2.582c0.025-0.878,0.041-1.881,0.041-3.013v-2.776
		C257.819,96.603,257.804,95.601,257.778,94.725z"/>
</g>
</svg>
